# xmcd
#
# Track frame offsets:
#	150
#	27357
#	38744
#	56044
#	73959
#	87330
#	103975
#	117183
#	126746
#	139435
#	152181
#	164928
#	181852
#	196136
#	208407
#
# Disc length: 3019 seconds
#
# Revision: 0
# Processed by: cddbd v1.5.2PL0 Copyright (c) Steve Scherf et al.
# Submitted via: EasyCDDAExtractor 16.0.6.1
#
DISCID=f30bc90f
DTITLE=Συλλογικός δίσκος - Τα καλύτερα ελληνικά τραγούδια 1975
DYEAR=1975
DGENRE=Λαϊκή
TTITLE0=Αλεξίου Χάρις - Ελλάδα (Λένγκω-Λένγκω) [Γ. Μαρκόπουλος]
TTITLE1=Φαραντούρη Μαρία - Ο γερο νέγρο Τζιμ [Μ. Λοϊζου-Γ. Νεγρεπόντη]
TTITLE2=Ξυλούρης Νίκος - Μπήκαν στην πόλη οι οχθροί [Γ. Μαρκόπουλου-Γ. Σκούρτη
TTITLE2=]
TTITLE3=Πρωτοψάλτη Άλκηστις - Είναι παλιό το λιμάνι [Δ. Μούτση-Γ. Σεφέρη]
TTITLE4=Βίσση Άννα - Στα χρόνια της υπομονής [Σ. Κουγιουμτζή-Μ. Ελευθερίου]
TTITLE5=Γαλάνη Δήμητρα - Η σκιά μου κι εγώ [Β. Τσιτσάνη-Κ. Βίρβου]
TTITLE6=Αλεξίου Χάρις - Η Ρόζα η ναζιάρα [Γ. Μαρκόπουλου-Μ. Φακίνου]
TTITLE7=Γαλάνη Δήμητρα - Γιαρέμ-γιαρέμ [Γ. Χατζηνάσιου-Ν. Γκάτσου]
TTITLE8=Βίσση Άννα - Παραμύθι ξεχασμένο [Σ. Κουγιουμτζή-Ά. Δασκαλόπουλου]
TTITLE9=Γαλάνη Δήμητρα - Αχ η αγάπη [Λ. Κόκοτου-Λ. Παπαδόπουλου]
TTITLE10=Βίσση Άννα - Μη βάζεις μαύρο [Δ. Γεωργιάδη-Σ. Τσώτου]
TTITLE11=Καζαντζίδης Στέλιος - Υπάρχω [Χ.Νικολόπουλου/Σ.Καζαντζίδη-Πυθαγόρα]
TTITLE12=Αλεξίου Χάρις - Δημητρούλα μου [Π. Τούντα]
TTITLE13=Μπιθικώτσης Γρηγόρης - Ένα αμάξι με δυό άλογα [Γ. Μπιθικώτση-Κ. Βίρβο
TTITLE13=υ]
TTITLE14=Τσιτσάνης Βασίλης - Της γερακίνας γιος [Β. Τσιτσάνη-Κ. Βίρβου]
EXTD=
EXTT0=
EXTT1=
EXTT2=
EXTT3=
EXTT4=
EXTT5=
EXTT6=
EXTT7=
EXTT8=
EXTT9=
EXTT10=
EXTT11=
EXTT12=
EXTT13=
EXTT14=
PLAYORDER=
